<?xml version="1.0" encoding="UTF-8" standalone="no"?>
<svg
   width="400"
   height="128"
   viewBox="0 0 75 24"
   version="1.1"
   id="svg1"
   sodipodi:docname="Botones.svg"
   inkscape:version="1.4 (86a8ad7, 2024-10-11)"
   xmlns:inkscape="http://www.inkscape.org/namespaces/inkscape"
   xmlns:sodipodi="http://sodipodi.sourceforge.net/DTD/sodipodi-0.dtd"
   xmlns="http://www.w3.org/2000/svg"
   xmlns:svg="http://www.w3.org/2000/svg">
  <defs
     id="defs1">
    <linearGradient
       id="swatch2"
       inkscape:swatch="solid">
      <stop
         style="stop-color:#000000;stop-opacity:1;"
         offset="0"
         id="stop2" />
    </linearGradient>
    <linearGradient
       id="swatch1"
       inkscape:swatch="solid">
      <stop
         style="stop-color:#000000;stop-opacity:1;"
         offset="0"
         id="stop1" />
    </linearGradient>
  </defs>
  <sodipodi:namedview
     id="namedview1"
     pagecolor="#505050"
     bordercolor="#eeeeee"
     borderopacity="1"
     inkscape:showpageshadow="0"
     inkscape:pageopacity="0"
     inkscape:pagecheckerboard="0"
     inkscape:deskcolor="#505050"
     showgrid="false"
     inkscape:export-bgcolor="#ffffff00"
     inkscape:zoom="2.135131"
     inkscape:cx="212.16497"
     inkscape:cy="86.411559"
     inkscape:window-width="1920"
     inkscape:window-height="991"
     inkscape:window-x="-9"
     inkscape:window-y="-9"
     inkscape:window-maximized="1"
     inkscape:current-layer="svg1">
    <inkscape:page
       x="0"
       y="0"
       width="75"
       height="24"
       id="page9"
       margin="0"
       bleed="0" />
  </sodipodi:namedview>
  <g
     id="g14"
     inkscape:label="botonEmergenciaClick"
     transform="translate(49.385246,10.8978)"
     inkscape:export-filename="botonEmergenciaClick.png"
     inkscape:export-xdpi="191.99869"
     inkscape:export-ydpi="191.99869"
     style="display:inline">
    <path
       style="fill:#000000;fill-opacity:1;stroke:#000000;stroke-width:1.12277;stroke-linejoin:miter;stroke-dasharray:none;stroke-opacity:1"
       d="M 3.1879573,2.4002226 H 20.782632 V 10.652452 H 3.1573577 Z"
       id="path13"
       inkscape:export-filename="boton1.png"
       inkscape:export-xdpi="191.99869"
       inkscape:export-ydpi="191.99869" />
    <path
       d="m 13.073616,17.572786 v -2.336663 a 0.27729382,0.27729382 0 1 0 -0.554587,0 v 1.941057 h -0.369724 v -2.495645 a 0.2772945,0.2772945 0 1 0 -0.554589,0 v 2.495645 h -0.369725 v -1.941057 a 0.277294,0.277294 0 1 0 -0.554588,0 v 2.310782 h -0.369725 v -1.571332 a 0.2772944,0.2772944 0 1 0 -0.5545888,0 v 2.447211 c 0,1.047616 0.8494448,1.897059 1.8972458,1.897059 0.701369,0 1.345615,-0.387102 1.674856,-1.006392 l 1.091982,-2.053268 A 0.33498193,0.33498193 0 0 0 13.82157,16.940186 l -0.40152,0.722628 c -0.09243,0.166746 -0.346434,0.100935 -0.346434,-0.08984"
       id="path15"
       style="fill:#ffffff;fill-opacity:1;stroke:none;stroke-width:0.184862;stroke-opacity:1"
       transform="translate(-0.12951913,-10.835705)" />
  </g>
  <g
     id="g15"
     inkscape:label="botonEmergencia"
     transform="translate(49.255727,0.06209527)"
     inkscape:export-filename="botonEmergencia.png"
     inkscape:export-xdpi="191.99869"
     inkscape:export-ydpi="191.99869">
    <path
       style="fill:none;stroke:#000000;stroke-width:1.12277;stroke-linejoin:miter;stroke-dasharray:none;stroke-opacity:1"
       d="M 3.2190053,2.4002226 H 20.81368 V 10.652452 H 3.1884057 Z"
       id="path14"
       inkscape:export-filename="boton1.png"
       inkscape:export-xdpi="191.99869"
       inkscape:export-ydpi="191.99869" />
    <path
       d="M 12.975158,6.7370809 V 4.4004182 a 0.27729382,0.27729382 0 1 0 -0.554587,0 V 6.341475 H 12.050847 V 3.8458307 a 0.2772945,0.2772945 0 1 0 -0.554589,0 V 6.341475 H 11.126533 V 4.4004182 a 0.277294,0.277294 0 1 0 -0.554588,0 v 2.310782 H 10.20222 V 5.1398685 a 0.27729415,0.27729415 0 1 0 -0.5545884,0 v 2.4472108 c 0,1.0476159 0.8494444,1.8970591 1.8972454,1.8970591 0.701369,0 1.345615,-0.3871022 1.674856,-1.0063917 L 14.311715,6.4244783 A 0.33498191,0.33498191 0 0 0 13.723112,6.1044814 l -0.40152,0.7226276 c -0.09243,0.1667458 -0.346434,0.1009354 -0.346434,-0.089844"
       id="path1"
       style="stroke-width:0.184862" />
  </g>
  <g
     id="g8"
     inkscape:label="botonComenzarClick">
    <path
       style="fill:none;stroke:#000000;stroke-width:1.12277;stroke-linejoin:miter;stroke-dasharray:none;stroke-opacity:1"
       d="M 3.2190053,2.4002226 H 20.81368 V 10.652452 H 3.1884057 Z"
       id="boton1"
       inkscape:export-filename="boton1.png"
       inkscape:export-xdpi="191.99869"
       inkscape:export-ydpi="191.99869" />
    <path
       style="fill:#000000;fill-opacity:1;stroke:#000000;stroke-width:1.31244;stroke-linejoin:miter;stroke-dasharray:none;stroke-opacity:1"
       d="m 10.160528,4.7639819 v 3.5359487 l 3.032314,-1.750707 z"
       id="path6" />
  </g>
  <g
     id="g9"
     inkscape:label="botonComenzar"
     transform="translate(0.0310479,10.773609)"
     inkscape:export-filename="boton1_click.png"
     inkscape:export-xdpi="191.99869"
     inkscape:export-ydpi="191.99869">
    <path
       style="fill:#000000;fill-opacity:1;stroke:#000000;stroke-width:1.12277;stroke-linejoin:miter;stroke-dasharray:none;stroke-opacity:1"
       d="M 3.1879573,2.4002226 H 20.782632 V 10.652452 H 3.1573577 Z"
       id="path8"
       inkscape:export-filename="boton1.png"
       inkscape:export-xdpi="191.99869"
       inkscape:export-ydpi="191.99869" />
    <path
       style="fill:#ffffff;fill-opacity:1;stroke:#ffffff;stroke-width:1.31244;stroke-linejoin:miter;stroke-dasharray:none;stroke-opacity:1"
       d="m 10.12948,4.7639819 v 3.5359487 l 3.032314,-1.750707 z"
       id="path9" />
  </g>
  <g
     id="g11"
     inkscape:label="botonParar"
     transform="translate(24.727913)"
     inkscape:export-filename="g11.png"
     inkscape:export-xdpi="191.99866"
     inkscape:export-ydpi="191.99866">
    <path
       style="fill:none;stroke:#000000;stroke-width:1.12277;stroke-linejoin:miter;stroke-dasharray:none;stroke-opacity:1"
       d="M 3.2190053,2.4002226 H 20.81368 V 10.652452 H 3.1884057 Z"
       id="path10"
       inkscape:export-filename="boton1.png"
       inkscape:export-xdpi="191.99869"
       inkscape:export-ydpi="191.99869" />
    <rect
       style="fill:#000000;fill-opacity:1;stroke:#000000;stroke-width:1.31244;stroke-linejoin:miter;stroke-dasharray:none;stroke-opacity:1"
       id="rect13"
       width="3.943079"
       height="3.943079"
       x="10.028461"
       y="4.5547976" />
  </g>
  <g
     id="g13"
     inkscape:label="botonPararClick"
     transform="translate(24.609049,10.773609)"
     inkscape:export-filename="botonPararClick.png"
     inkscape:export-xdpi="191.99869"
     inkscape:export-ydpi="191.99869">
    <path
       style="fill:#000000;fill-opacity:1;stroke:#000000;stroke-width:1.12277;stroke-linejoin:miter;stroke-dasharray:none;stroke-opacity:1"
       d="M 3.1879573,2.4002226 H 20.782632 V 10.652452 H 3.1573577 Z"
       id="path12"
       inkscape:export-filename="boton1.png"
       inkscape:export-xdpi="191.99869"
       inkscape:export-ydpi="191.99869" />
    <rect
       style="fill:#ffffff;fill-opacity:1;stroke:#ffffff;stroke-width:1.31244;stroke-linejoin:miter;stroke-dasharray:none;stroke-opacity:1"
       id="rect13-5"
       width="3.943079"
       height="3.943079"
       x="9.9974127"
       y="4.5547976" />
  </g>
</svg>
